<?xml version="1.0" encoding="UTF-8"?>
<svg width="234px" height="68px" viewBox="0 0 234 68" version="1.1" xmlns="http://www.w3.org/2000/svg" xmlns:xlink="http://www.w3.org/1999/xlink">
    <!-- Generator: sketchtool 51.2 (57519) - http://www.bohemiancoding.com/sketch -->
    <title>2C562F7D-BA83-4466-9B62-12A6C7A71746@3x</title>
    <desc>Created with sketchtool.</desc>
    <defs></defs>
    <g id="Nav" stroke="none" stroke-width="1" fill="none" fill-rule="evenodd">
        <g id="Home-–-Nav1" transform="translate(-50.000000, -17.000000)">
            <g id="HPA-Logo-Te-Reo" transform="translate(50.000000, 17.000000)">
                <rect id="Background" x="0" y="0" width="234" height="68"></rect>
                <g id="Group" fill-rule="nonzero">
                    <g id="SVGID_2_-link" fill="#84BD00">
                        <path d="M29.4147887,0.165853659 C13.265493,0.165853659 0.164788732,13.5170732 0.164788732,29.7707317 C0.164788732,46.0243902 13.265493,59.2097561 29.4147887,59.2097561 C45.5640845,59.2097561 58.6647887,46.0243902 58.6647887,29.7707317 C58.6647887,28.6097561 58.6647887,11.4439024 58.6647887,10.4487805 C58.6647887,5.80487805 61.5485915,2.90243902 61.6309859,1.4097561 L61.6309859,1.32682927 C61.6309859,0.580487805 60.7246479,0.248780488 58.3352113,0.248780488 C58.2528169,0.165853659 32.1338028,0.165853659 29.4147887,0.165853659 Z" id="SVGID_2_"></path>
                    </g>
                    <path d="M39.1373239,29.5219512 C39.1373239,26.7853659 37.9014085,25.2097561 37.9014085,25.2097561 C36.4183099,22.9707317 33.534507,21.4780488 30.7330986,21.4780488 C27.9316901,21.4780488 25.2950704,22.8878049 23.8119718,25.1268293 C23.8119718,25.1268293 22.493662,26.6195122 22.493662,29.604878 L22.493662,44.1170732 L22.5760563,44.1170732 C24.2239437,44.1170732 25.0478873,42.8731707 25.0478873,42.3756098 L25.0478873,29.6878049 C25.0478873,26.702439 27.6021127,24.2146341 30.7330986,24.1317073 C34.0288732,24.0487805 36.5830986,26.4536585 36.5830986,29.604878 C36.5830986,32.8390244 34.1112676,34.995122 31.8042254,34.995122 C31.1450704,34.995122 29.7443662,34.7463415 29.3323944,34 C31.1450704,34.0829268 31.9690141,32.4243902 31.9690141,31.595122 L31.9690141,31.5121951 C31.9690141,30.9317073 31.8042254,30.4341463 31.5570423,30.0195122 C31.1450704,29.4390244 30.4859155,29.0243902 29.7443662,28.9414634 C29.5795775,28.9414634 29.3323944,28.9414634 29.1676056,28.9414634 L29.0852113,28.9414634 C29.0028169,28.9414634 28.9204225,28.9414634 28.8380282,29.0243902 C28.7556338,29.0243902 28.6732394,29.1073171 28.5908451,29.1073171 C28.5084507,29.1073171 28.4260563,29.1902439 28.343662,29.1902439 L28.2612676,29.1902439 C27.1077465,29.7707317 26.4485915,30.9317073 26.4485915,32.3414634 L26.4485915,32.5902439 C26.4485915,36.0731707 29.1676056,37.6487805 31.8866197,37.6487805 C34.8528169,37.6487805 36.9950704,35.8243902 38.1485915,34.0829268 C37.9014085,34.1658537 39.1373239,32.2585366 39.1373239,29.5219512" id="Shape" fill="#FFFFFF"></path>
                    <path d="M47.8711268,35.1609756 C44.8225352,35.1609756 42.3507042,32.6731707 42.3507042,29.604878 C42.3507042,26.5365854 44.8225352,24.0487805 47.8711268,24.0487805 C50.9197183,24.0487805 53.3915493,26.5365854 53.3915493,29.604878 C53.3915493,32.6731707 50.9197183,35.1609756 47.8711268,35.1609756 M56.028169,29.9365854 C56.028169,29.8536585 56.028169,29.7707317 56.028169,29.6878049 C56.028169,29.2731707 56.028169,28.7756098 55.9457746,28.3609756 C55.9457746,28.2780488 55.9457746,28.2780488 55.9457746,28.2780488 C55.2866197,24.3804878 51.9084507,21.4780488 47.8711268,21.4780488 C43.3394366,21.4780488 39.7140845,25.1268293 39.7140845,29.6878049 C39.7140845,34.2487805 43.3394366,37.897561 47.8711268,37.897561 C49.0246479,37.897561 50.0957746,37.6487805 51.1669014,37.2341463 C51.9908451,36.902439 52.7323944,36.4878049 53.3915493,35.8243902 C53.3915493,36.7365854 53.3915493,37.6487805 53.3915493,37.6487805 C54.1330986,37.6487805 54.9570423,37.5658537 55.5338028,36.9853659 C56.1105634,36.3219512 56.028169,34.8292683 56.028169,34.8292683 L56.028169,30.1853659 C56.028169,30.1853659 56.028169,30.0195122 56.028169,29.9365854" id="Shape" fill="#FFFFFF"></path>
                    <path d="M5.85,36.1560976 L5.85,17.497561 C5.85,17 6.26197183,15.7560976 7.90985915,15.7560976 L8.48661972,15.7560976 L8.48661972,23.3853659 C9.80492958,22.1414634 11.5352113,21.4780488 13.4302817,21.4780488 C16.0669014,21.4780488 18.456338,22.8878049 19.8570423,25.1268293 C19.8570423,25.1268293 21.1753521,27.1170732 21.1753521,29.7707317 L21.1753521,36.1560976 C21.1753521,36.6536585 20.3514085,37.897561 18.6211268,37.897561 L18.5387324,37.897561 L18.5387324,29.604878 C18.5387324,26.6195122 16.2316901,24.1317073 13.5126761,24.1317073 C10.793662,24.1317073 8.65140845,26.5365854 8.56901408,29.604878 L8.56901408,37.897561 L7.90985915,37.897561 C6.17957746,37.897561 5.85,36.6536585 5.85,36.1560976" id="Shape" fill="#FFFFFF"></path>
                </g>
                <path d="M226.007746,30.5170732 L226.007746,24.0487805 C226.007746,22.1414634 227.326056,20.9804878 229.056338,20.9804878 C230.951408,20.9804878 231.280986,22.3902439 231.280986,23.5512195 L231.280986,30.5170732 L233.670423,30.5170732 L233.670423,23.0536585 C233.670423,20.4829268 232.269718,18.8243902 229.715493,18.8243902 C228.15,18.8243902 226.914085,19.4878049 226.007746,20.7317073 L226.007746,19.0731707 L223.61831,19.0731707 L223.61831,30.5170732 L226.007746,30.5170732 Z M219.498592,24.795122 C219.498592,27.0341463 218.34507,28.6926829 216.285211,28.6926829 C214.225352,28.6926829 213.071831,27.0341463 213.071831,24.795122 C213.071831,22.5560976 214.225352,20.897561 216.285211,20.897561 C218.34507,20.8146341 219.498592,22.5560976 219.498592,24.795122 Z M222.052817,24.795122 C222.052817,21.3121951 219.828169,18.7414634 216.285211,18.7414634 C212.742254,18.7414634 210.517606,21.2292683 210.517606,24.795122 C210.517606,28.2780488 212.742254,30.7658537 216.285211,30.7658537 C219.828169,30.7658537 222.052817,28.2780488 222.052817,24.795122 Z M208.869718,14.8439024 L206.480282,14.8439024 L206.480282,17.0829268 L208.869718,17.0829268 L208.869718,14.8439024 Z M208.869718,18.9902439 L206.480282,18.9902439 L206.480282,30.4341463 L208.869718,30.4341463 L208.869718,18.9902439 Z M204.502817,28.1121951 C204.173239,28.3609756 203.678873,28.6097561 203.102113,28.6097561 C202.11338,28.6097561 201.53662,28.0292683 201.53662,26.8682927 L201.53662,20.8146341 L205.079577,20.8146341 L205.079577,18.9902439 L201.53662,18.9902439 L201.53662,15.9219512 L199.147183,15.9219512 L199.147183,18.9902439 L197.252113,18.9902439 L197.252113,20.8146341 L199.147183,20.8146341 L199.147183,26.8682927 C199.147183,27.9463415 199.311972,28.6926829 199.723944,29.2731707 C200.383099,30.2682927 201.454225,30.7658537 202.772535,30.7658537 C203.843662,30.7658537 204.75,30.4341463 205.491549,29.9365854 L204.502817,28.1121951 Z M194.285915,24.795122 C194.285915,27.0341463 193.132394,28.6926829 191.072535,28.6926829 C189.012676,28.6926829 187.859155,27.0341463 187.859155,24.795122 C187.859155,22.5560976 189.012676,20.897561 191.072535,20.897561 C193.132394,20.8146341 194.285915,22.5560976 194.285915,24.795122 Z M196.840141,24.795122 C196.840141,21.3121951 194.615493,18.7414634 191.072535,18.7414634 C187.529577,18.7414634 185.30493,21.2292683 185.30493,24.795122 C185.30493,28.2780488 187.529577,30.7658537 191.072535,30.7658537 C194.615493,30.7658537 196.840141,28.2780488 196.840141,24.795122 Z M169.155634,30.5170732 L169.155634,24.0487805 C169.155634,22.1414634 170.391549,20.9804878 171.957042,20.9804878 C173.769718,20.9804878 174.099296,22.3073171 174.099296,23.5512195 L174.099296,30.5170732 L176.488732,30.5170732 L176.488732,24.0487805 C176.488732,22.1414634 177.724648,20.9804878 179.290141,20.9804878 C181.102817,20.9804878 181.432394,22.3073171 181.432394,23.5512195 L181.432394,30.5170732 L183.821831,30.5170732 L183.821831,22.9707317 C183.821831,20.4 182.503521,18.7414634 180.03169,18.7414634 C178.466197,18.7414634 177.065493,19.4878049 176.076761,20.897561 C175.582394,19.4878049 174.428873,18.7414634 172.780986,18.7414634 C171.297887,18.7414634 170.144366,19.404878 169.238028,20.6487805 L169.238028,18.9902439 L166.848592,18.9902439 L166.848592,30.4341463 L169.155634,30.4341463 L169.155634,30.5170732 Z M162.564085,24.795122 C162.564085,27.0341463 161.410563,28.6926829 159.350704,28.6926829 C157.290845,28.6926829 156.137324,27.0341463 156.137324,24.795122 C156.137324,22.5560976 157.290845,20.897561 159.350704,20.897561 C161.410563,20.8146341 162.564085,22.5560976 162.564085,24.795122 Z M165.11831,24.795122 C165.11831,21.3121951 162.893662,18.7414634 159.350704,18.7414634 C155.807746,18.7414634 153.583099,21.2292683 153.583099,24.795122 C153.583099,28.2780488 155.807746,30.7658537 159.350704,30.7658537 C162.893662,30.7658537 165.11831,28.2780488 165.11831,24.795122 Z M153.583099,19.1560976 C153.253521,18.9073171 152.676761,18.7414634 152.1,18.7414634 C150.78169,18.7414634 149.628169,19.6536585 148.88662,20.8146341 L148.88662,18.9902439 L146.497183,18.9902439 L146.497183,30.4341463 L148.88662,30.4341463 L148.88662,24.6292683 C148.88662,22.4731707 150.20493,21.1463415 151.605634,21.1463415 C152.1,21.1463415 152.511972,21.3121951 152.923944,21.4780488 L153.583099,19.1560976 Z M135.785915,24.795122 C135.785915,22.6390244 136.939437,20.9804878 139.08169,20.9804878 C141.223944,20.9804878 142.29507,22.7219512 142.29507,24.795122 C142.29507,26.8682927 141.223944,28.6097561 139.08169,28.6097561 C137.021831,28.6097561 135.785915,26.8682927 135.785915,24.795122 Z M133.396479,18.9902439 L133.396479,34.2487805 L135.785915,34.2487805 L135.785915,28.7756098 C136.857042,30.102439 138.175352,30.6829268 139.658451,30.6829268 C142.871831,30.6829268 144.849296,28.1121951 144.849296,24.6292683 C144.849296,21.2292683 142.871831,18.6585366 139.658451,18.6585366 C138.175352,18.6585366 136.857042,19.2390244 135.785915,20.5658537 L135.785915,18.9073171 L133.396479,18.9073171 L133.396479,18.9902439 Z" id="Shape" fill="#0080A4" fill-rule="nonzero"></path>
                <path d="M118.483099,30.4341463 L118.483099,24.0487805 C118.483099,22.1414634 119.801408,20.9804878 121.53169,20.9804878 C123.426761,20.9804878 123.756338,22.3902439 123.756338,23.5512195 L123.756338,30.5170732 L126.145775,30.5170732 L126.145775,23.0536585 C126.145775,20.4829268 124.74507,18.8243902 122.190845,18.8243902 C120.625352,18.8243902 119.389437,19.4878049 118.483099,20.7317073 L118.483099,14.9268293 L116.093662,14.9268293 L116.093662,30.5170732 L118.483099,30.5170732 L118.483099,30.4341463 Z M113.704225,28.1121951 C113.374648,28.3609756 112.880282,28.6097561 112.303521,28.6097561 C111.314789,28.6097561 110.738028,28.0292683 110.738028,26.8682927 L110.738028,20.8146341 L114.280986,20.8146341 L114.280986,18.9902439 L110.738028,18.9902439 L110.738028,15.9219512 L108.348592,15.9219512 L108.348592,18.9902439 L106.453521,18.9902439 L106.453521,20.8146341 L108.348592,20.8146341 L108.348592,26.8682927 C108.348592,27.9463415 108.51338,28.6926829 108.925352,29.2731707 C109.584507,30.2682927 110.655634,30.7658537 111.973944,30.7658537 C113.04507,30.7658537 113.951408,30.4341463 114.692958,29.9365854 L113.704225,28.1121951 Z M102.004225,27.4487805 C102.004225,28.4439024 102.08662,29.1073171 102.498592,29.604878 C102.992958,30.3512195 103.899296,30.6829268 104.970423,30.6829268 C105.794366,30.6829268 106.453521,30.5170732 106.783099,30.2682927 L106.288732,28.4439024 C106.123944,28.5268293 105.711972,28.6926829 105.3,28.6926829 C104.723239,28.6926829 104.311268,28.4439024 104.311268,27.4487805 L104.311268,14.8439024 L101.921831,14.8439024 L101.921831,27.4487805 L102.004225,27.4487805 Z M96.8133803,24.7121951 C96.8133803,26.8682927 95.6598592,28.5268293 93.5176056,28.5268293 C91.3753521,28.5268293 90.3042254,26.7853659 90.3042254,24.7121951 C90.3042254,22.5560976 91.3753521,20.897561 93.5176056,20.897561 C95.6598592,20.897561 96.8133803,22.5560976 96.8133803,24.7121951 Z M99.2028169,18.9902439 L96.8133803,18.9902439 L96.8133803,20.6487805 C95.8246479,19.2390244 94.506338,18.7414634 92.9408451,18.7414634 C89.7274648,18.7414634 87.6676056,21.3121951 87.6676056,24.795122 C87.6676056,28.195122 89.6450704,30.7658537 92.9408451,30.7658537 C94.4239437,30.7658537 95.9070423,30.2682927 96.8957746,28.8585366 C97.2253521,30.1853659 98.2964789,30.6829268 99.3676056,30.6829268 C99.7795775,30.6829268 100.438732,30.6 100.850704,30.4341463 L100.603521,28.7756098 C100.438732,28.8585366 100.191549,28.9414634 99.9443662,28.9414634 C99.3676056,28.9414634 99.1204225,28.6097561 99.1204225,27.8634146 L99.1204225,18.9902439 L99.2028169,18.9902439 Z M77.7802817,23.5512195 C77.9450704,21.8097561 79.0985915,20.6487805 80.9112676,20.6487805 C82.5591549,20.6487805 83.8774648,21.6439024 84.0422535,23.5512195 L77.7802817,23.5512195 Z M86.5140845,24.4634146 C86.5140845,21.1463415 84.371831,18.6585366 80.9112676,18.6585366 C77.2859155,18.6585366 75.143662,21.3121951 75.143662,24.7121951 C75.143662,28.1121951 77.2859155,30.6829268 81.1584507,30.6829268 C83.3007042,30.6829268 84.9485915,29.8536585 86.1021127,28.6097561 L84.5366197,27.1170732 C83.7126761,28.0292683 82.5591549,28.5268293 81.2408451,28.5268293 C79.1809859,28.5268293 77.8626761,27.3658537 77.7802817,25.2926829 L86.5140845,25.2926829 C86.5140845,25.1268293 86.5140845,24.8780488 86.5140845,24.4634146 Z M66.0802817,30.4341463 L66.0802817,24.0487805 C66.0802817,22.1414634 67.3985915,20.9804878 69.1288732,20.9804878 C71.0239437,20.9804878 71.3535211,22.3902439 71.3535211,23.5512195 L71.3535211,30.5170732 L73.7429577,30.5170732 L73.7429577,23.0536585 C73.7429577,20.4829268 72.3422535,18.8243902 69.7880282,18.8243902 C68.2225352,18.8243902 66.9866197,19.4878049 66.0802817,20.7317073 L66.0802817,14.9268293 L63.6908451,14.9268293 L63.6908451,30.5170732 L66.0802817,30.5170732 L66.0802817,30.4341463 Z" id="Shape" fill="#0080A4" fill-rule="nonzero"></path>
                <path d="M130.265493,45.1121951 C130.265493,47.6829268 128.452817,48.595122 126.557746,48.595122 C125.404225,48.595122 124.16831,48.2634146 123.179577,47.4341463 L122.355634,48.595122 C123.426761,49.4243902 124.74507,49.9219512 126.475352,49.9219512 C128.370423,49.9219512 129.771127,49.2585366 130.59507,48.2634146 C131.33662,47.3512195 131.583803,46.2731707 131.583803,44.8634146 L131.583803,35.0780488 L130.265493,35.0780488 L130.265493,40.3853659 C130.265493,42.7073171 128.7,44.2829268 126.557746,44.2829268 C124.250704,44.2829268 123.838732,42.5414634 123.838732,41.0487805 L123.838732,35.0780488 L122.520423,35.0780488 L122.520423,41.3804878 C122.520423,44.1170732 124.085915,45.6097561 126.392958,45.6097561 C128.123239,45.6097561 129.359155,44.7804878 130.265493,43.3707317 L130.265493,45.1121951 Z M119.966197,43.2878049 C119.307042,44.2829268 118.235915,45.0292683 116.752817,45.0292683 C114.445775,45.0292683 113.04507,43.1219512 113.04507,40.5512195 C113.04507,38.0634146 114.445775,36.1560976 116.752817,36.1560976 C118.153521,36.1560976 119.224648,36.8195122 119.883803,37.8146341 L120.95493,36.9853659 C119.966197,35.6585366 118.565493,34.8292683 116.752817,34.8292683 C113.621831,34.8292683 111.561972,37.3170732 111.561972,40.5512195 C111.561972,43.7853659 113.539437,46.2731707 116.670423,46.2731707 C118.565493,46.2731707 120.048592,45.3609756 120.95493,44.1170732 L119.966197,43.2878049 Z M102.08662,46.0243902 L102.08662,39.9707317 C102.08662,37.6487805 103.652113,36.0731707 105.794366,36.0731707 C108.101408,36.0731707 108.51338,37.8146341 108.51338,39.3073171 L108.51338,46.0243902 L109.83169,46.0243902 L109.83169,38.9756098 C109.83169,36.2390244 108.266197,34.7463415 105.959155,34.7463415 C104.228873,34.7463415 102.992958,35.5756098 102.08662,36.9853659 L102.08662,34.995122 L100.76831,34.995122 L100.76831,45.9414634 L102.08662,45.9414634 L102.08662,46.0243902 Z M90.0570423,39.6390244 C90.221831,37.5658537 91.6225352,36.0731707 93.7647887,36.0731707 C95.6598592,36.0731707 97.2253521,37.3170732 97.4725352,39.6390244 L90.0570423,39.6390244 Z M98.8732394,40.2195122 C98.8732394,37.2341463 96.8957746,34.8292683 93.7647887,34.8292683 C90.5514085,34.8292683 88.5739437,37.4 88.5739437,40.6341463 C88.5739437,43.8682927 90.6338028,46.3560976 94.0119718,46.3560976 C95.8246479,46.3560976 97.1429577,45.6926829 98.2964789,44.4487805 L97.3077465,43.4536585 C96.4014085,44.4487805 95.3302817,44.9463415 94.0119718,44.9463415 C91.7049296,44.9463415 90.1394366,43.3707317 89.9746479,40.8829268 L98.8732394,40.8829268 C98.8732394,40.7170732 98.8732394,40.5512195 98.8732394,40.2195122 Z M85.3605634,40.1365854 C85.3605634,42.3756098 83.9598592,44.2 81.4056338,44.2 C78.8514085,44.2 77.615493,42.2926829 77.615493,40.1365854 C77.615493,37.9804878 78.8514085,36.0731707 81.4056338,36.0731707 C83.9598592,36.1560976 85.3605634,37.9804878 85.3605634,40.1365854 Z M86.6788732,44.3658537 L86.6788732,35.0780488 L85.3605634,35.0780488 L85.3605634,37.0682927 C84.4542254,35.4926829 82.8887324,34.8292683 81.2408451,34.8292683 C78.3570423,34.8292683 76.2147887,37.0682927 76.2147887,40.2195122 C76.2147887,43.2878049 78.2746479,45.5268293 81.1584507,45.5268293 C82.806338,45.5268293 84.4542254,44.8634146 85.3605634,43.2878049 L85.3605634,44.6146341 C85.3605634,47.4341463 83.5478873,48.595122 81.2408451,48.595122 C79.7577465,48.595122 78.521831,48.1804878 77.5330986,47.4341463 L76.7091549,48.595122 C77.9450704,49.5073171 79.428169,49.9219512 81.1584507,49.9219512 C82.9711268,49.9219512 84.5366197,49.4243902 85.6077465,48.1804878 C86.3492958,47.2682927 86.6788732,46.0243902 86.6788732,44.3658537 Z M72.4246479,40.5512195 C72.4246479,43.0390244 71.106338,44.9463415 68.5521127,44.9463415 C65.9978873,44.9463415 64.7619718,42.9560976 64.7619718,40.5512195 C64.7619718,38.0634146 65.9978873,36.1560976 68.5521127,36.1560976 C71.106338,36.0731707 72.4246479,38.0634146 72.4246479,40.5512195 Z M73.8253521,35.0780488 L72.5070423,35.0780488 L72.5070423,37.0682927 C71.4359155,35.4097561 69.9528169,34.8292683 68.4697183,34.8292683 C65.3387324,34.8292683 63.443662,37.3170732 63.443662,40.5512195 C63.443662,43.7853659 65.3387324,46.2731707 68.5521127,46.2731707 C69.9528169,46.2731707 71.6007042,45.7756098 72.5894366,44.2 C72.7542254,45.6097561 73.6605634,46.1902439 74.6492958,46.1902439 C74.9788732,46.1902439 75.3908451,46.1073171 75.7204225,46.0243902 L75.5556338,44.8634146 C75.3908451,44.9463415 75.143662,45.0292683 74.8964789,45.0292683 C74.1549296,45.0292683 73.9077465,44.6146341 73.9077465,43.702439 L73.9077465,35.0780488 L73.8253521,35.0780488 Z" id="Shape" fill="#0080A4" fill-rule="nonzero"></path>
                <polygon id="Shape" fill="#77AA03" fill-rule="nonzero" points="68.4697183 58.8780488 68.4697183 67.6682927 67.0690141 67.6682927 67.0690141 58.8780488 63.6908451 58.8780488 63.6908451 57.5512195 71.9302817 57.5512195 71.9302817 58.8780488"></polygon>
                <polygon id="Shape" fill="#77AA03" fill-rule="nonzero" points="73.3309859 67.6682927 73.3309859 57.5512195 80.4169014 57.5512195 80.4169014 58.8780488 74.7316901 58.8780488 74.7316901 61.697561 79.6753521 61.697561 79.6753521 62.9414634 74.7316901 62.9414634 74.7316901 66.3414634 80.5816901 66.3414634 80.5816901 67.6682927"></polygon>
                <polygon id="Shape" fill="#77AA03" fill-rule="nonzero" points="93.6 67.6682927 93.6 62.9414634 88.1619718 62.9414634 88.1619718 67.6682927 86.7612676 67.6682927 86.7612676 57.5512195 88.1619718 57.5512195 88.1619718 61.6146341 93.6 61.6146341 93.6 57.5512195 95.0007042 57.5512195 95.0007042 67.6682927 93.6 67.6682927"></polygon>
                <polygon id="Shape" fill="#77AA03" fill-rule="nonzero" points="97.3901408 67.6682927 97.3901408 57.5512195 98.7908451 57.5512195 98.7908451 67.6682927 97.3901408 67.6682927"></polygon>
                <path d="M107.607042,67.6682927 L105.464789,63.604878 L102.580986,63.604878 L102.580986,67.6682927 L101.180282,67.6682927 L101.180282,57.5512195 L105.547183,57.5512195 C107.607042,57.5512195 108.925352,58.7121951 108.925352,60.5365854 C108.925352,61.9463415 108.019014,62.9414634 106.865493,63.3560976 L109.172535,67.6682927 L107.607042,67.6682927 Z M105.547183,58.8780488 L102.580986,58.8780488 L102.580986,62.3609756 L105.547183,62.3609756 C106.700704,62.3609756 107.442254,61.697561 107.442254,60.6195122 C107.442254,59.5414634 106.700704,58.8780488 105.547183,58.8780488 Z" id="Shape" fill="#77AA03" fill-rule="nonzero"></path>
                <polygon id="Shape" fill="#77AA03" fill-rule="nonzero" points="111.15 67.6682927 111.15 57.5512195 112.550704 57.5512195 112.550704 67.6682927 111.15 67.6682927"></polygon>
                <polygon id="Shape" fill="#77AA03" fill-rule="nonzero" points="121.202113 67.6682927 115.928873 59.3756098 115.928873 67.6682927 114.610563 67.6682927 114.610563 57.5512195 116.423239 57.5512195 121.53169 65.6780488 121.53169 57.5512195 122.85 57.5512195 122.85 67.6682927 121.202113 67.6682927"></polygon>
                <path d="M126.145775,62.6097561 C126.145775,64.9317073 127.464085,66.5073171 129.523944,66.5073171 C131.33662,66.5073171 132.65493,65.4292683 132.737324,63.6878049 L129.523944,63.6878049 L129.523944,62.4439024 L134.138028,62.4439024 C134.138028,62.6097561 134.220423,62.8585366 134.220423,63.1902439 C134.220423,65.595122 132.572535,67.7512195 129.606338,67.7512195 C126.640141,67.7512195 124.74507,65.5121951 124.74507,62.5268293 C124.74507,59.4585366 126.640141,57.302439 129.606338,57.302439 C131.33662,57.302439 132.65493,58.0487805 133.561268,59.2926829 L132.407746,60.0390244 C131.830986,59.1268293 130.842254,58.5463415 129.606338,58.5463415 C127.38169,58.7121951 126.145775,60.2878049 126.145775,62.6097561 Z" id="Shape" fill="#77AA03" fill-rule="nonzero"></path>
                <path d="M142.789437,67.6682927 L141.71831,64.8487805 L137.18662,64.8487805 L136.115493,67.6682927 L134.632394,67.6682927 L138.669718,57.5512195 L140.235211,57.5512195 L144.35493,67.6682927 L142.789437,67.6682927 Z M139.493662,58.9609756 L137.680986,63.604878 L141.223944,63.604878 L139.493662,58.9609756 Z" id="Shape" fill="#77AA03" fill-rule="nonzero"></path>
                <polygon id="Shape" fill="#77AA03" fill-rule="nonzero" points="156.796479 67.6682927 156.796479 62.9414634 151.358451 62.9414634 151.358451 67.6682927 149.957746 67.6682927 149.957746 57.5512195 151.358451 57.5512195 151.358451 61.6146341 156.796479 61.6146341 156.796479 57.5512195 158.197183 57.5512195 158.197183 67.6682927 156.796479 67.6682927"></polygon>
                <path d="M167.507746,67.6682927 L166.43662,64.8487805 L161.90493,64.8487805 L160.833803,67.6682927 L159.350704,67.6682927 L163.388028,57.5512195 L164.953521,57.5512195 L169.073239,67.6682927 L167.507746,67.6682927 Z M164.211972,58.9609756 L162.399296,63.604878 L165.942254,63.604878 L164.211972,58.9609756 Z" id="Shape" fill="#77AA03" fill-rule="nonzero"></path>
                <path d="M177.642254,63.8536585 C177.642254,66.2585366 175.911972,67.8341463 173.522535,67.8341463 C171.133099,67.8341463 169.402817,66.3414634 169.402817,63.8536585 L169.402817,57.5512195 L170.803521,57.5512195 L170.803521,63.8536585 C170.803521,65.4292683 171.792254,66.5073171 173.522535,66.5073171 C175.170423,66.5073171 176.241549,65.4292683 176.241549,63.8536585 L176.241549,57.5512195 L177.642254,57.5512195 L177.642254,63.8536585 Z" id="Shape" fill="#77AA03" fill-rule="nonzero"></path>
                <path d="M183.821831,67.8341463 C180.855634,67.8341463 178.960563,65.595122 178.960563,62.6097561 C178.960563,59.6243902 180.855634,57.3853659 183.821831,57.3853659 C186.788028,57.3853659 188.683099,59.6243902 188.683099,62.6097561 C188.765493,65.595122 186.870423,67.8341463 183.821831,67.8341463 Z M183.821831,58.7121951 C181.679577,58.7121951 180.443662,60.2878049 180.443662,62.6097561 C180.443662,64.9317073 181.761972,66.5073171 183.821831,66.5073171 C185.964085,66.5073171 187.2,64.8487805 187.2,62.6097561 C187.2,60.3707317 185.964085,58.7121951 183.821831,58.7121951 Z" id="Shape" fill="#77AA03" fill-rule="nonzero"></path>
                <path d="M196.592958,67.6682927 L194.450704,63.604878 L191.566901,63.604878 L191.566901,67.6682927 L190.166197,67.6682927 L190.166197,57.5512195 L194.533099,57.5512195 C196.592958,57.5512195 197.911268,58.7121951 197.911268,60.5365854 C197.911268,61.9463415 197.00493,62.9414634 195.851408,63.3560976 L198.158451,67.6682927 L196.592958,67.6682927 Z M194.533099,58.8780488 L191.566901,58.8780488 L191.566901,62.3609756 L194.533099,62.3609756 C195.68662,62.3609756 196.428169,61.697561 196.428169,60.6195122 C196.510563,59.5414634 195.68662,58.8780488 194.533099,58.8780488 Z" id="Shape" fill="#77AA03" fill-rule="nonzero"></path>
                <path d="M207.38662,67.6682927 L206.315493,64.8487805 L201.783803,64.8487805 L200.712676,67.6682927 L199.229577,67.6682927 L203.266901,57.5512195 L204.832394,57.5512195 L208.952113,67.6682927 L207.38662,67.6682927 Z M204.090845,58.9609756 L202.278169,63.604878 L205.821127,63.604878 L204.090845,58.9609756 Z" id="Shape" fill="#77AA03" fill-rule="nonzero"></path>
            </g>
        </g>
    </g>
</svg>